<?xml version="1.0" standalone="no"?>
<!DOCTYPE svg PUBLIC "-//W3C//DTD SVG 20010904//EN"
 "http://www.w3.org/TR/2001/REC-SVG-20010904/DTD/svg10.dtd">
<svg version="1.0" xmlns="http://www.w3.org/2000/svg"
 width="512.000000pt" height="512.000000pt" viewBox="0 0 512.000000 512.000000"
 preserveAspectRatio="xMidYMid meet">

<g transform="translate(0.000000,512.000000) scale(0.100000,-0.100000)"
fill="#000000" stroke="none">
<path d="M2325 4949 c-211 -20 -499 -94 -702 -181 -1136 -487 -1721 -1750
-1352 -2922 199 -633 632 -1138 1231 -1436 1080 -537 2383 -184 3060 830 208
312 352 722 387 1100 76 822 -285 1638 -944 2133 -488 366 -1074 532 -1680
476z m590 -178 c628 -106 1158 -448 1511 -977 179 -267 296 -573 351 -909 24
-153 24 -497 0 -650 -108 -668 -474 -1222 -1042 -1580 -243 -153 -537 -261
-850 -312 -154 -24 -497 -24 -650 1 -658 107 -1197 455 -1557 1006 -168 257
-281 557 -335 885 -24 153 -24 497 0 650 81 497 291 912 636 1255 382 381 862
605 1401 654 108 10 418 -4 535 -23z"/>
<path d="M1440 4034 l0 -447 -54 -66 c-162 -200 -262 -410 -317 -671 -30 -142
-33 -407 -5 -555 68 -368 276 -712 561 -930 l75 -58 0 -168 c0 -144 3 -176 20
-222 24 -64 83 -128 153 -164 44 -23 65 -28 132 -28 67 0 89 4 137 28 99 49
164 142 175 254 5 50 8 54 27 49 12 -4 77 -9 146 -12 151 -8 290 7 450 47 63
16 116 29 117 29 0 0 3 -39 5 -87 5 -135 58 -222 171 -280 43 -22 65 -27 132
-27 68 -1 89 3 137 27 65 32 121 89 152 156 20 43 21 65 24 334 l3 288 68 87
c439 560 440 1321 4 1880 l-73 93 0 292 c0 239 -3 303 -16 347 -30 101 -91
171 -189 217 -51 24 -73 28 -145 28 -104 0 -156 -21 -234 -95 -64 -61 -91
-117 -116 -247 -10 -52 -20 -97 -23 -99 -2 -3 -49 4 -103 15 -55 11 -143 23
-196 27 l-98 7 0 198 0 199 -80 0 -79 0 -3 -528 -3 -528 -38 -76 c-30 -61 -52
-90 -117 -148 -109 -98 -143 -166 -148 -294 -2 -50 13 -498 33 -996 l37 -905
-22 -42 c-24 -45 -84 -83 -131 -83 -44 0 -112 42 -134 82 -19 36 -19 39 9 971
16 514 27 965 24 1001 -9 103 -50 178 -148 266 -65 58 -87 87 -117 148 l-38
76 -3 528 -3 528 -79 0 -80 0 0 -446z m1993 256 c18 -13 45 -39 58 -58 l24
-36 3 -1594 c2 -1595 2 -1595 -19 -1638 -35 -74 -127 -104 -199 -65 -53 28
-80 74 -80 137 0 29 20 327 45 663 25 335 45 619 45 631 0 11 -11 32 -25 45
-23 24 -31 25 -136 25 l-111 0 5 548 c3 313 10 590 16 647 33 283 80 552 108
618 17 39 58 77 103 96 41 17 124 7 163 -19z m-602 -400 c50 -10 93 -21 96
-24 3 -3 -2 -65 -11 -138 -29 -233 -36 -411 -36 -931 l0 -508 25 -24 c23 -23
31 -25 130 -25 102 0 105 -1 105 -22 1 -91 -65 -905 -74 -915 -20 -20 -199
-71 -308 -87 -58 -9 -144 -16 -191 -16 -90 0 -237 17 -249 28 -6 7 -69 1499
-68 1640 0 42 6 88 15 110 9 20 53 73 99 118 89 86 125 139 165 243 24 63 25
77 29 325 l4 258 89 -7 c49 -3 130 -15 180 -25z m-1296 -682 c15 -23 65 -78
110 -122 63 -62 86 -91 96 -124 10 -36 10 -153 -5 -660 -10 -340 -21 -659 -25
-710 l-6 -94 -90 89 c-285 278 -431 645 -411 1033 12 253 94 503 228 698 l30
44 23 -57 c13 -31 36 -75 50 -97z m2222 -7 c25 -46 63 -132 84 -192 58 -164
73 -257 73 -449 0 -192 -15 -285 -73 -449 -21 -60 -59 -146 -84 -192 -84 -154
-76 -219 -76 641 0 860 -8 795 76 641z"/>
<path d="M1760 4040 l0 -440 80 0 80 0 0 440 0 440 -80 0 -80 0 0 -440z"/>
<path d="M2080 4040 l0 -440 80 0 80 0 0 440 0 440 -80 0 -80 0 0 -440z"/>
<path d="M1047 3982 l-67 -68 32 -30 c18 -16 45 -40 61 -54 l27 -24 64 70 64
69 -51 53 c-28 28 -54 52 -57 52 -3 0 -36 -31 -73 -68z"/>
<path d="M809 3683 c-74 -115 -172 -321 -219 -461 -62 -186 -118 -480 -93
-495 5 -3 40 -7 78 -8 l70 -3 11 85 c39 288 139 564 287 794 25 38 44 72 42
75 -2 4 -31 25 -64 49 l-61 42 -51 -78z"/>
</g>
</svg>
